<mxfile host="" modified="2020-06-05T03:26:59.146Z" agent="5.0 (Macintosh; Intel Mac OS X 10_15_4) AppleWebKit/537.36 (KHTML, like Gecko) Code/1.45.1 Chrome/78.0.3904.130 Electron/7.2.4 Safari/537.36" etag="WPot9afinMuKqnwbn5Qg" version="13.1.3">
    <diagram id="6hGFLwfOUW9BJ-s0fimq" name="Page-1">
        <mxGraphModel dx="1376" dy="785" grid="1" gridSize="10" guides="1" tooltips="1" connect="1" arrows="1" fold="1" page="1" pageScale="1" pageWidth="827" pageHeight="1169" math="0" shadow="0">
            <root>
                <mxCell id="0"/>
                <mxCell id="1" parent="0"/>
                <mxCell id="5" style="edgeStyle=orthogonalEdgeStyle;rounded=0;orthogonalLoop=1;jettySize=auto;html=1;exitX=0.5;exitY=1;exitDx=0;exitDy=0;entryX=0.5;entryY=0;entryDx=0;entryDy=0;" edge="1" parent="1" source="2" target="4">
                    <mxGeometry relative="1" as="geometry"/>
                </mxCell>
                <mxCell id="2" value="&lt;div style=&quot;color: rgb(171 , 178 , 191) ; background-color: rgb(40 , 44 , 52) ; font-family: &amp;#34;monaco&amp;#34; , &amp;#34;menlo&amp;#34; , &amp;#34;monaco&amp;#34; , &amp;#34;courier new&amp;#34; , monospace ; font-size: 13px ; line-height: 20px&quot;&gt;&lt;div&gt;&lt;span style=&quot;color: #c678dd&quot;&gt;const&lt;/span&gt; &lt;span style=&quot;color: #c678dd&quot;&gt;struct&lt;/span&gt; inet_connection_sock &lt;span style=&quot;color: #c678dd&quot;&gt;*&lt;/span&gt;icsk &lt;span style=&quot;color: #c678dd&quot;&gt;=&lt;/span&gt; &lt;span style=&quot;color: #61afef&quot;&gt;inet_csk&lt;/span&gt;(sk);&lt;/div&gt;&lt;div&gt;    &lt;span style=&quot;color: #c678dd&quot;&gt;struct&lt;/span&gt; inet_sock &lt;span style=&quot;color: #c678dd&quot;&gt;*&lt;/span&gt;inet;&lt;/div&gt;&lt;div&gt;    &lt;span style=&quot;color: #c678dd&quot;&gt;struct&lt;/span&gt; tcp_sock &lt;span style=&quot;color: #c678dd&quot;&gt;*&lt;/span&gt;tp;&lt;/div&gt;&lt;div&gt;    &lt;span style=&quot;color: #c678dd&quot;&gt;struct&lt;/span&gt; tcp_skb_cb &lt;span style=&quot;color: #c678dd&quot;&gt;*&lt;/span&gt;tcb;&lt;/div&gt;&lt;div&gt;    &lt;span style=&quot;color: #c678dd&quot;&gt;struct&lt;/span&gt; tcp_out_options opts;&lt;/div&gt;&lt;div&gt;    &lt;span style=&quot;color: #c678dd&quot;&gt;unsigned&lt;/span&gt; &lt;span style=&quot;color: #c678dd&quot;&gt;int&lt;/span&gt; tcp_options_size, tcp_header_size;&lt;/div&gt;&lt;div&gt;    &lt;span style=&quot;color: #c678dd&quot;&gt;struct&lt;/span&gt; tcp_md5sig_key &lt;span style=&quot;color: #c678dd&quot;&gt;*&lt;/span&gt;md5;&lt;/div&gt;&lt;div&gt;    &lt;span style=&quot;color: #c678dd&quot;&gt;struct&lt;/span&gt; tcphdr &lt;span style=&quot;color: #c678dd&quot;&gt;*&lt;/span&gt;th;&lt;/div&gt;&lt;/div&gt;" style="align=left;rounded=0;whiteSpace=wrap;html=1;" vertex="1" parent="1">
                    <mxGeometry x="220" y="40" width="410" height="190" as="geometry"/>
                </mxCell>
                <mxCell id="7" style="edgeStyle=orthogonalEdgeStyle;rounded=0;orthogonalLoop=1;jettySize=auto;html=1;exitX=0.5;exitY=1;exitDx=0;exitDy=0;entryX=0.5;entryY=0;entryDx=0;entryDy=0;" edge="1" parent="1" source="4" target="6">
                    <mxGeometry relative="1" as="geometry"/>
                </mxCell>
                <mxCell id="4" value="&lt;div style=&quot;color: rgb(171 , 178 , 191) ; background-color: rgb(40 , 44 , 52) ; font-family: &amp;#34;monaco&amp;#34; , &amp;#34;menlo&amp;#34; , &amp;#34;monaco&amp;#34; , &amp;#34;courier new&amp;#34; , monospace ; font-size: 13px ; line-height: 20px&quot;&gt;&lt;div style=&quot;font-family: &amp;#34;monaco&amp;#34; , &amp;#34;menlo&amp;#34; , &amp;#34;monaco&amp;#34; , &amp;#34;courier new&amp;#34; , monospace ; line-height: 20px&quot;&gt;&lt;div&gt;&lt;span style=&quot;color: #7f848e ; font-style: italic&quot;&gt;/* Build TCP header and checksum it. */&lt;/span&gt;&lt;/div&gt;&lt;div&gt;    th &lt;span style=&quot;color: #c678dd&quot;&gt;=&lt;/span&gt; &lt;span style=&quot;color: #61afef&quot;&gt;tcp_hdr&lt;/span&gt;(skb);&lt;/div&gt;&lt;div&gt;    &lt;span style=&quot;color: #e06c75&quot;&gt;th&lt;/span&gt;-&amp;gt;&lt;span style=&quot;color: #e06c75&quot;&gt;source&lt;/span&gt; &lt;span style=&quot;color: #c678dd&quot;&gt;=&lt;/span&gt; &lt;span style=&quot;color: #e06c75&quot;&gt;inet&lt;/span&gt;-&amp;gt;&lt;span style=&quot;color: #e06c75&quot;&gt;inet_sport&lt;/span&gt;;&lt;/div&gt;&lt;div&gt;    &lt;span style=&quot;color: #e06c75&quot;&gt;th&lt;/span&gt;-&amp;gt;&lt;span style=&quot;color: #e06c75&quot;&gt;dest&lt;/span&gt; &lt;span style=&quot;color: #c678dd&quot;&gt;=&lt;/span&gt; &lt;span style=&quot;color: #e06c75&quot;&gt;inet&lt;/span&gt;-&amp;gt;&lt;span style=&quot;color: #e06c75&quot;&gt;inet_dport&lt;/span&gt;;&lt;/div&gt;&lt;div&gt;    &lt;span style=&quot;color: #e06c75&quot;&gt;th&lt;/span&gt;-&amp;gt;&lt;span style=&quot;color: #e06c75&quot;&gt;seq&lt;/span&gt; &lt;span style=&quot;color: #c678dd&quot;&gt;=&lt;/span&gt; &lt;span style=&quot;color: #61afef&quot;&gt;htonl&lt;/span&gt;(&lt;span style=&quot;color: #e06c75&quot;&gt;tcb&lt;/span&gt;-&amp;gt;&lt;span style=&quot;color: #e06c75&quot;&gt;seq&lt;/span&gt;);&lt;/div&gt;&lt;div&gt;    &lt;span style=&quot;color: #e06c75&quot;&gt;th&lt;/span&gt;-&amp;gt;&lt;span style=&quot;color: #e06c75&quot;&gt;ack_seq&lt;/span&gt; &lt;span style=&quot;color: #c678dd&quot;&gt;=&lt;/span&gt; &lt;span style=&quot;color: #61afef&quot;&gt;htonl&lt;/span&gt;(&lt;span style=&quot;color: #e06c75&quot;&gt;tp&lt;/span&gt;-&amp;gt;&lt;span style=&quot;color: #e06c75&quot;&gt;rcv_nxt&lt;/span&gt;);&lt;/div&gt;&lt;div&gt;...&lt;/div&gt;&lt;/div&gt;&lt;/div&gt;" style="align=left;rounded=0;whiteSpace=wrap;html=1;" vertex="1" parent="1">
                    <mxGeometry x="220" y="290" width="410" height="160" as="geometry"/>
                </mxCell>
                <mxCell id="9" style="edgeStyle=orthogonalEdgeStyle;rounded=0;orthogonalLoop=1;jettySize=auto;html=1;exitX=0.5;exitY=1;exitDx=0;exitDy=0;entryX=0.41;entryY=-0.025;entryDx=0;entryDy=0;entryPerimeter=0;" edge="1" parent="1" source="6" target="8">
                    <mxGeometry relative="1" as="geometry"/>
                </mxCell>
                <mxCell id="6" value="&lt;div style=&quot;color: rgb(171 , 178 , 191) ; background-color: rgb(40 , 44 , 52) ; font-family: &amp;#34;monaco&amp;#34; , &amp;#34;menlo&amp;#34; , &amp;#34;monaco&amp;#34; , &amp;#34;courier new&amp;#34; , monospace ; font-size: 13px ; line-height: 20px&quot;&gt;err &lt;span style=&quot;color: #c678dd&quot;&gt;=&lt;/span&gt; &lt;span style=&quot;color: #e06c75&quot;&gt;icsk&lt;/span&gt;-&amp;gt;&lt;span style=&quot;color: #e06c75&quot;&gt;icsk_af_ops&lt;/span&gt;-&amp;gt;&lt;span style=&quot;color: #61afef&quot;&gt;queue_xmit&lt;/span&gt;(skb, &lt;span style=&quot;color: #c678dd&quot;&gt;&amp;amp;&lt;/span&gt;&lt;span style=&quot;color: #e06c75&quot;&gt;inet&lt;/span&gt;-&amp;gt;&lt;span style=&quot;color: #e06c75&quot;&gt;cork&lt;/span&gt;.&lt;span style=&quot;color: #e06c75&quot;&gt;fl&lt;/span&gt;);&lt;/div&gt;" style="shape=process;whiteSpace=wrap;html=1;backgroundOutline=1;size=0.02304147465437788;" vertex="1" parent="1">
                    <mxGeometry x="166.88" y="555" width="516.25" height="30" as="geometry"/>
                </mxCell>
                <mxCell id="8" value="&lt;div style=&quot;color: rgb(171 , 178 , 191) ; background-color: rgb(40 , 44 , 52) ; font-family: &amp;#34;monaco&amp;#34; , &amp;#34;menlo&amp;#34; , &amp;#34;monaco&amp;#34; , &amp;#34;courier new&amp;#34; , monospace ; font-weight: normal ; font-size: 13px ; line-height: 20px&quot;&gt;&lt;div&gt;&lt;span style=&quot;color: #61afef&quot;&gt;ip_output.c&lt;/span&gt;&lt;/div&gt;&lt;div&gt;&lt;span style=&quot;color: #61afef&quot;&gt;ip_queue_xmit&lt;/span&gt;&lt;/div&gt;&lt;/div&gt;" style="text;whiteSpace=wrap;html=1;" vertex="1" parent="1">
                    <mxGeometry x="340" y="630" width="200" height="40" as="geometry"/>
                </mxCell>
            </root>
        </mxGraphModel>
    </diagram>
</mxfile>